<svg xmlns="http://www.w3.org/2000/svg" viewBox="0 0 24 24">
  <defs>
    <linearGradient id="g" x1="0" y1="0" x2="1" y2="1">
      <stop offset="0" stop-color="#A78BFA"/>
      <stop offset="1" stop-color="#6366F1"/>
    </linearGradient>
  </defs>
  <rect x="0.5" y="0.5" width="23" height="23" rx="6.5" fill="url(#g)"/>
  <path d="M11.6 6.6h-1.4c-1 0-1.7.7-1.7 1.7v1.3H7v2.2h1.5V18h2.3v-6.2h2v-2.2h-2V8.7c0-.3.2-.5.5-.5h1.3V6.6h-1z" fill="#fff"/>
  <path d="M18.6 18h-2.2l-1-1.7-1 1.7h-2.2l2.1-3.2-2-3.1h2.2l.9 1.6.9-1.6h2.2l-2 3.1 2.1 3.2z" fill="#fff"/>
</svg>
